<svg xmlns="http://www.w3.org/2000/svg" viewBox="0 0 200 227" width="200" height="227">
	<style>
		tspan { white-space:pre }
		.shp0 { fill: #d4b830 } 
		.shp1 { opacity: 0.984;fill: none } 
		.shp2 { fill: #fdd83c } 
	</style>
	<g id="g5193">
		<path id="path5113" fill-rule="evenodd" class="shp0" d="M18.51 203.69L-0.01 0.01L199.52 0.09L181.16 203.53L99.6 226.55L18.51 203.69ZM181.62 18.13L99.91 18.13L100.54 210.53L166.14 192.57L181.62 18.13ZM72.44 43.7L72.21 148.11L33.69 137.61L33.76 161.48L92.29 177.26L92.29 43.7L72.44 43.7Z" />
		<path id="path5159" class="shp1" d="M85.75 175.31C83.18 174.54 70.5 171.12 57.58 167.62L34.15 161.32L34.15 149.58C34.15 138.08 34.15 137.84 35.32 138.23C35.94 138.47 44.5 140.8 54.31 143.52L72.13 148.42L72.29 96.33L72.44 44.25L91.9 44.25L91.9 110.48C91.9 163.11 91.74 176.71 91.2 176.71C90.81 176.64 88.32 176.01 85.75 175.31L85.75 175.31Z" />
		<path id="path5157" class="shp1" d="M33.76 161.48L33.69 137.61C33.69 137.61 58.28 144.53 72.21 148.11L72.44 43.78L92.29 43.78L92.29 177.26L33.76 161.48L33.76 161.48Z" />
		<path id="path5117" fill-rule="evenodd" class="shp2" d="M99.91 18.05L181.62 18.05L166.14 192.5L99.91 210.45L99.91 18.05ZM161.94 163.27L167.31 98.04L127.62 102.47L127.62 67.65L169.95 67.49L171.66 43.7L107.77 44.01L108.63 130.61L147.23 124.01L146.68 143.29L107.77 153.63L108.16 177.26L161.94 163.27Z" />
	</g>
</svg>