<svg xmlns="http://www.w3.org/2000/svg" viewBox="0 0 200 200" width="200" height="200">
	<style>
		tspan { white-space:pre }
		.shp0 { fill: #bc6d02 } 
	</style>
	<path id="Layer" fill-rule="evenodd" class="shp0" d="M195.74 154.57C201.41 160.23 201.41 169.45 195.74 175.16L175.16 195.74C169.49 201.45 160.27 201.45 154.57 195.74L108.83 150C99.8 140.98 98.09 127.5 103.4 116.64L61.76 75L37.5 75L0 25L25 0L75 37.5L75 61.76L116.64 103.4C127.5 98.05 140.98 99.8 150 108.83L195.74 154.57ZM119.92 89.02L87.85 56.95C87.58 42.3 92.81 27.62 103.95 16.48C118.4 2.03 138.79 -2.89 157.3 1.68C160.86 2.58 162.11 6.99 159.53 9.57L130.47 38.63L134.88 65.16L161.41 69.57L190.47 40.51C193.05 37.93 197.46 39.14 198.32 42.66C202.93 61.17 198.01 81.56 183.52 96.05C178.44 101.13 172.58 104.88 166.41 107.58L158.83 100C151.02 92.19 140.63 87.89 129.57 87.89C126.37 87.89 123.09 88.28 119.92 89.02ZM88.98 119.92C87.07 128.16 87.97 136.64 90.94 144.41L42.66 192.7C32.89 202.46 17.07 202.46 7.3 192.7C-2.46 182.93 -2.46 167.11 7.3 157.34L66.84 97.77L88.98 119.92ZM34.38 175C34.38 169.8 30.2 165.63 25 165.63C19.8 165.63 15.63 169.8 15.63 175C15.63 180.16 19.84 184.38 25 184.38C30.2 184.38 34.38 180.16 34.38 175Z" />
</svg>